<svg width="90" height="60" viewBox="0 0 90 60" fill="none" xmlns="http://www.w3.org/2000/svg">
<g clip-path="url(#clip0_14730_2573)">
<path d="M65.8848 43.8282H67.773V37.191H65.8848V43.8282Z" fill="white"/>
<path d="M55.185 33.6459H50.99V32.3105H54.8509V30.9906H50.99V29.7962H55.185V28.4019H49.1895V35.0391H55.185" fill="white"/>
<mask id="mask0_14730_2573" style="mask-type:luminance" maskUnits="userSpaceOnUse" x="-455" y="-806" width="680" height="880">
<path d="M-454.83 73.8282H224.541V-805.358H-454.83V73.8282Z" fill="white"/>
</mask>
<g mask="url(#mask0_14730_2573)">
<path d="M72.7819 40.0293C71.3022 39.4254 70.9092 39.4554 70.7205 39.1668C70.4896 38.6495 71.099 38.4208 71.825 38.4641C72.0415 38.4774 72.4778 38.5052 73.5801 38.6639V37.1697C73.0295 37.041 72.3601 36.9688 71.5919 36.9688C70.5029 36.9399 68.5725 37.2275 68.6591 39.1534C68.7612 40.359 69.6326 40.6609 70.8515 41.0628C71.8983 41.3925 72.1148 41.4791 72.0715 41.9531C71.9838 42.4426 71.4032 42.4715 71.0402 42.4848C70.3431 42.4848 69.3717 42.3416 68.689 42.1263V43.7348C68.689 43.7348 69.9512 43.9934 71.1124 44.0078C71.9838 44.0078 73.8998 43.7203 74.0585 41.9109C74.0896 40.7042 73.3481 40.2724 72.7819 40.0293Z" fill="white"/>
<path d="M45.2573 32.588C45.1952 32.7423 45.1519 32.891 45.1219 33.0487C45.0875 32.891 45.0364 32.7423 44.9765 32.5858L43.2869 28.3941H41.2344L44.1095 35.0313H46.111L48.9872 28.3941H46.948" fill="white"/>
</g>
<path d="M54.9157 41.7789L52.0928 37.1843H49.7383V43.8203H51.5189V39.2113L54.3263 43.8203H56.6796V37.1843H54.9157" fill="white"/>
<mask id="mask1_14730_2573" style="mask-type:luminance" maskUnits="userSpaceOnUse" x="-455" y="-806" width="680" height="880">
<path d="M-454.83 73.8282H224.541V-805.358H-454.83V73.8282Z" fill="white"/>
</mask>
<g mask="url(#mask1_14730_2573)">
<path d="M57.8278 29.7872H59.6283C59.9769 29.7872 60.5575 29.8161 60.5575 30.5776C60.5575 31.2381 60.079 31.3536 59.6139 31.3536H58.0176L60.5575 35.0313H62.852L60.6163 32.3171C61.2979 32.3449 62.3714 31.7987 62.4024 30.5488C62.4446 28.8692 61.6021 28.3941 60.311 28.3941H55.9551V35.0313H57.8278" fill="white"/>
</g>
<path d="M42.9473 43.8282H48.9428V42.4339H44.7478V41.0985H48.6087V39.7775H44.7478V38.5852H48.9428V37.191H42.9473" fill="white"/>
<mask id="mask2_14730_2573" style="mask-type:luminance" maskUnits="userSpaceOnUse" x="-455" y="-806" width="680" height="880">
<path d="M-454.83 73.8282H224.541V-805.358H-454.83V73.8282Z" fill="white"/>
</mask>
<g mask="url(#mask2_14730_2573)">
<path d="M66.9533 35.0224V32.6301L69.9561 28.3863H67.7792L66.2229 30.8595C66.0774 31.0893 66.0153 31.2525 66.0153 31.2525C66.0153 31.2525 65.9542 31.0882 65.8088 30.8595L64.2846 28.3863H62.1211L65.0806 32.6301V35.0235" fill="white"/>
<path d="M37.6494 28.3952L34.832 35.0313H36.8368L37.4019 33.6104H40.247L40.8143 35.0313H42.818L40.0161 28.3952H37.6494ZM37.9392 32.2883L38.6219 30.5787C38.6219 30.5787 38.7528 30.2346 38.8394 29.8905C38.9416 30.2191 39.0714 30.5787 39.0714 30.5787L39.7397 32.2883" fill="white"/>
</g>
<path d="M62.9729 41.7789L60.1511 37.1843H57.7988V43.8203H59.5761L59.5772 39.2113L62.3846 43.8203H64.738V37.1843H62.9729" fill="white"/>
<path d="M88.1908 37.191V41.7856L85.3701 37.191H83.0156V43.8282H84.794V39.218L87.6025 43.8282H89.957V37.191" fill="white"/>
<mask id="mask3_14730_2573" style="mask-type:luminance" maskUnits="userSpaceOnUse" x="-455" y="-806" width="680" height="880">
<path d="M-454.83 73.8282H224.541V-805.358H-454.83V73.8282Z" fill="white"/>
</mask>
<g mask="url(#mask3_14730_2573)">
<path d="M30.8239 35.8804L21.2861 19.3312C20.6323 18.169 20.6467 18.2389 20.4735 17.967C19.964 17.0622 19.2236 16.1997 18.4121 15.7268C17.3964 15.1373 15.9588 14.8354 14.4191 15.2517C13.0826 15.6247 12.1113 16.4151 11.0367 18.2389L9.74456 20.4657L1.07703 35.7794C0.539751 36.8128 0.65631 36.5986 0.467596 36.986C0.206727 37.7042 0.046875 38.1216 0.046875 38.9109C0.046875 41.2387 1.87518 43.8097 5.49073 43.8241C5.99803 43.8386 5.27315 43.8386 6.53531 43.853C8.39359 43.8674 21.5758 43.853 25.3368 43.853C25.9174 43.8241 25.7431 43.8674 26.4691 43.7942C29.0234 43.6365 30.9394 42.5165 31.6521 40.1042C32.1016 38.4091 31.6077 37.2302 30.8239 35.8804ZM13.2291 19.0726C13.7941 18.0813 14.3314 17.6794 14.9997 17.4929C16.5538 17.0189 18.078 17.9092 18.512 19.3756C18.7018 20.035 18.6286 20.7688 18.1068 21.7601L11.1954 33.7823H9.35159L16.7692 20.8976C17.0034 20.4657 17.0756 20.1216 17.0034 19.8053C16.8291 19.188 16.2208 18.7707 15.4793 18.9871C15.1884 19.087 14.9708 19.2602 14.68 19.7486L6.68185 33.7546H6.41875C5.92588 33.769 5.33087 33.8411 4.73587 34.041L13.2291 19.0726ZM15.9011 30.2778L17.9614 33.7967H13.8963L15.9011 30.2778ZM5.50516 41.5551C4.64817 41.5107 4.05317 41.4541 3.31274 40.8502C2.09276 39.7146 2.09276 37.964 3.19618 36.8994C3.73346 36.3821 4.475 36.0813 5.37417 36.0669H19.1958L20.1238 37.6598H5.21431C4.92347 37.6598 4.53272 37.7897 4.29961 38.0062C3.83559 38.4658 3.86445 39.2128 4.34401 39.658C4.57602 39.8889 4.91015 39.9744 5.21431 39.9744H21.4604C21.8234 40.5494 22.0543 40.9657 22.767 41.5551H5.50516ZM29.3431 39.4571C28.9801 40.9657 27.3549 41.8992 25.8441 41.4241C25.0027 41.1522 24.5375 40.5782 24.0724 39.8312L17.2343 27.9943L18.1657 26.3858L25.4822 39.0696C25.8297 39.6424 26.0628 39.8445 26.3525 39.93C26.9331 40.132 27.6602 39.7446 27.8189 39.1118C27.9055 38.8099 27.8478 38.4946 27.5581 37.9773L19.5155 24.0435C19.7608 23.4974 20.0817 22.8935 20.1838 22.0754L28.9213 37.2158C29.2931 37.8574 29.5618 38.5235 29.3431 39.4571Z" fill="white"/>
<path d="M39.1596 37.191H35.0645V43.8282H39.204C41.5396 43.8282 42.2367 42.0609 42.2667 40.5245C42.28 39.1314 41.5551 37.191 39.1596 37.191ZM38.4036 42.3495H36.895V38.6718H38.4469C39.5214 38.6718 40.394 39.1025 40.394 40.5101C40.394 42.0764 39.4937 42.3495 38.4036 42.3495Z" fill="white"/>
<path d="M78.3277 36.9004C75.8434 36.8437 74.4646 38.2491 74.4513 40.477C74.4347 42.7039 75.8434 44.097 78.3399 44.0537C80.8387 44.097 82.2452 42.7039 82.2319 40.477C82.2319 38.2491 80.8387 36.8437 78.3277 36.9004ZM78.3399 42.3875C77.0056 42.3875 76.2929 41.626 76.2929 40.4193C76.2929 39.2127 77.0056 38.4378 78.3399 38.4378C79.6909 38.4378 80.3903 39.2127 80.3903 40.4193C80.3903 41.626 79.6909 42.3875 78.3399 42.3875Z" fill="white"/>
</g>
</g>
<defs>
<clipPath id="clip0_14730_2573">
<rect width="90" height="29.0865" fill="white" transform="translate(0 15)"/>
</clipPath>
</defs>
</svg>
